<svg width="319" height="95" viewBox="0 0 319 95"  xmlns="http://www.w3.org/2000/svg">
<path d="M60.375 76.125V93H14.375V76.125H60.375ZM22.1875 2V93H0.25V2H22.1875Z" fill="#000"/>
<path d="M142.625 45.6875V49.375C142.625 56.3333 141.646 62.5833 139.688 68.125C137.771 73.625 135.042 78.3333 131.5 82.25C127.958 86.125 123.771 89.1042 118.938 91.1875C114.104 93.2292 108.771 94.25 102.938 94.25C97.0625 94.25 91.6875 93.2292 86.8125 91.1875C81.9792 89.1042 77.7708 86.125 74.1875 82.25C70.6458 78.3333 67.8958 73.625 65.9375 68.125C64.0208 62.5833 63.0625 56.3333 63.0625 49.375V45.6875C63.0625 38.7292 64.0208 32.4792 65.9375 26.9375C67.8958 21.3958 70.625 16.6875 74.125 12.8125C77.6667 8.89583 81.8542 5.91667 86.6875 3.875C91.5625 1.79167 96.9375 0.75 102.812 0.75C108.646 0.75 113.979 1.79167 118.812 3.875C123.688 5.91667 127.896 8.89583 131.438 12.8125C134.979 16.6875 137.729 21.3958 139.688 26.9375C141.646 32.4792 142.625 38.7292 142.625 45.6875ZM120.375 49.375V45.5625C120.375 41.0625 119.979 37.1042 119.188 33.6875C118.438 30.2292 117.312 27.3333 115.812 25C114.312 22.6667 112.458 20.9167 110.25 19.75C108.083 18.5417 105.604 17.9375 102.812 17.9375C99.8958 17.9375 97.3542 18.5417 95.1875 19.75C93.0208 20.9167 91.2083 22.6667 89.75 25C88.2917 27.3333 87.1875 30.2292 86.4375 33.6875C85.7292 37.1042 85.375 41.0625 85.375 45.5625V49.375C85.375 53.8333 85.7292 57.7917 86.4375 61.25C87.1875 64.6667 88.2917 67.5625 89.75 69.9375C91.25 72.3125 93.0833 74.1042 95.25 75.3125C97.4583 76.5208 100.021 77.125 102.938 77.125C105.729 77.125 108.208 76.5208 110.375 75.3125C112.542 74.1042 114.354 72.3125 115.812 69.9375C117.312 67.5625 118.438 64.6667 119.188 61.25C119.979 57.7917 120.375 53.8333 120.375 49.375Z" fill="#000"/>
<path d="M228.438 44.375V81.75C226.896 83.4583 224.521 85.2917 221.312 87.25C218.146 89.1667 214.146 90.8125 209.312 92.1875C204.479 93.5625 198.792 94.25 192.25 94.25C186.208 94.25 180.729 93.2917 175.812 91.375C170.896 89.4167 166.667 86.5625 163.125 82.8125C159.625 79.0208 156.917 74.3958 155 68.9375C153.125 63.4375 152.188 57.1458 152.188 50.0625V45C152.188 37.9167 153.146 31.625 155.062 26.125C156.979 20.625 159.667 16 163.125 12.25C166.625 8.45833 170.729 5.58333 175.438 3.625C180.188 1.66667 185.396 0.6875 191.062 0.6875C199.438 0.6875 206.25 2.02083 211.5 4.6875C216.75 7.3125 220.729 10.9583 223.438 15.625C226.146 20.25 227.792 25.6042 228.375 31.6875H207.312C206.896 28.6875 206.104 26.1458 204.938 24.0625C203.812 21.9375 202.188 20.3333 200.062 19.25C197.938 18.125 195.188 17.5625 191.812 17.5625C189.188 17.5625 186.792 18.125 184.625 19.25C182.5 20.375 180.688 22.0833 179.188 24.375C177.688 26.625 176.521 29.4583 175.688 32.875C174.896 36.2917 174.5 40.2917 174.5 44.875V50.0625C174.5 54.6042 174.875 58.5833 175.625 62C176.417 65.4167 177.583 68.2708 179.125 70.5625C180.708 72.8125 182.708 74.5208 185.125 75.6875C187.583 76.8125 190.479 77.375 193.812 77.375C196.146 77.375 198.146 77.1875 199.812 76.8125C201.479 76.3958 202.854 75.8958 203.938 75.3125C205.062 74.6875 205.917 74.1042 206.5 73.5625V59.4375H191.25V44.375H228.438Z" fill="#000"/>
<path d="M318.25 45.6875V49.375C318.25 56.3333 317.271 62.5833 315.312 68.125C313.396 73.625 310.667 78.3333 307.125 82.25C303.583 86.125 299.396 89.1042 294.562 91.1875C289.729 93.2292 284.396 94.25 278.562 94.25C272.688 94.25 267.312 93.2292 262.438 91.1875C257.604 89.1042 253.396 86.125 249.812 82.25C246.271 78.3333 243.521 73.625 241.562 68.125C239.646 62.5833 238.688 56.3333 238.688 49.375V45.6875C238.688 38.7292 239.646 32.4792 241.562 26.9375C243.521 21.3958 246.25 16.6875 249.75 12.8125C253.292 8.89583 257.479 5.91667 262.312 3.875C267.188 1.79167 272.562 0.75 278.438 0.75C284.271 0.75 289.604 1.79167 294.438 3.875C299.312 5.91667 303.521 8.89583 307.062 12.8125C310.604 16.6875 313.354 21.3958 315.312 26.9375C317.271 32.4792 318.25 38.7292 318.25 45.6875ZM296 49.375V45.5625C296 41.0625 295.604 37.1042 294.812 33.6875C294.062 30.2292 292.938 27.3333 291.438 25C289.938 22.6667 288.083 20.9167 285.875 19.75C283.708 18.5417 281.229 17.9375 278.438 17.9375C275.521 17.9375 272.979 18.5417 270.812 19.75C268.646 20.9167 266.833 22.6667 265.375 25C263.917 27.3333 262.812 30.2292 262.062 33.6875C261.354 37.1042 261 41.0625 261 45.5625V49.375C261 53.8333 261.354 57.7917 262.062 61.25C262.812 64.6667 263.917 67.5625 265.375 69.9375C266.875 72.3125 268.708 74.1042 270.875 75.3125C273.083 76.5208 275.646 77.125 278.562 77.125C281.354 77.125 283.833 76.5208 286 75.3125C288.167 74.1042 289.979 72.3125 291.438 69.9375C292.938 67.5625 294.062 64.6667 294.812 61.25C295.604 57.7917 296 53.8333 296 49.375Z" fill="#000"/>
</svg>
